# xmcd
#
# Track frame offsets: 
#        150
#        19992
#        39107
#        53635
#        71385
#        87430
#        106960
#        121825
#        142632
#        158712
#        172877
#        192435
#
# Disc length: 2733 seconds
#
# Revision: 0
# Processed by: cddbd v1.5.2PL0 Copyright (c) Steve Scherf et al.
# Submitted via: ExactAudioCopy v0.95a5
#
DISCID=8c0aab0c
DTITLE=Romane Serda - Apres la pluie
DYEAR=2007
DGENRE=Chanson
TTITLE0=T'etais pas la
TTITLE1=Apres la pluie
TTITLE2=Dylan
TTITLE3=Aller au sud
TTITLE4=Tu ne me connais pas
TTITLE5=Nuit blanche
TTITLE6=London, Glasgow, Dublin
TTITLE7=Pleure pas
TTITLE8=Balade avec toi
TTITLE9=Nos differences
TTITLE10=Elle et toi
TTITLE11=T'es ou ?
EXTD=
EXTT0=
EXTT1=
EXTT2=
EXTT3=
EXTT4=
EXTT5=
EXTT6=
EXTT7=
EXTT8=
EXTT9=
EXTT10=
EXTT11=
PLAYORDER=
